<?xml version="1.0" standalone="no"?>
<!DOCTYPE svg PUBLIC "-//W3C//DTD SVG 20010904//EN"
 "http://www.w3.org/TR/2001/REC-SVG-20010904/DTD/svg10.dtd">
<svg version="1.0" xmlns="http://www.w3.org/2000/svg"
 width="256.000000pt" height="256.000000pt" viewBox="0 0 256.000000 256.000000"
 preserveAspectRatio="xMidYMid meet">
<metadata>
Created by potrace 1.14, written by Peter Selinger 2001-2017
</metadata>
<g transform="translate(0.000000,256.000000) scale(0.100000,-0.100000)"
fill="#000000" stroke="none">
<path d="M573 2549 c-171 -21 -273 -69 -383 -179 -75 -75 -140 -179 -154 -245
-4 -16 -9 -41 -12 -55 -18 -90 -22 -239 -20 -835 3 -750 4 -758 73 -895 26
-50 61 -98 108 -145 101 -103 173 -140 350 -181 45 -11 1359 -14 1435 -4 36 5
82 11 103 14 21 3 42 8 47 11 6 3 19 8 31 10 46 9 157 82 219 145 87 86 144
189 165 295 17 85 20 205 20 825 0 756 -1 765 -71 908 -41 83 -149 200 -227
246 -151 89 -205 94 -982 93 -352 0 -668 -4 -702 -8z"/>
</g>
</svg>
